<mxfile modified="2020-12-01T07:59:44.456Z" host="app.diagrams.net" agent="5.0 (Windows NT 10.0; Win64; x64) AppleWebKit/537.36 (KHTML, like Gecko) Chrome/86.0.4240.198 Safari/537.36" etag="EN4tUHvHBayJYls1tntG" version="13.10.4" type="github">
  <diagram id="Ua2dPTa5Rs49JCpVA3tZ" name="第 1 页">
    <mxGraphModel dx="1038" dy="548" grid="1" gridSize="10" guides="1" tooltips="1" connect="1" arrows="1" fold="1" page="1" pageScale="1" pageWidth="2339" pageHeight="3300" math="0" shadow="0">
      <root>
        <mxCell id="0" />
        <mxCell id="1" parent="0" />
        <mxCell id="6IysQoJjXPUectvoglUJ-1" value="GLView" style="html=1;" parent="1" vertex="1">
          <mxGeometry x="40" y="110" width="110" height="50" as="geometry" />
        </mxCell>
        <mxCell id="6IysQoJjXPUectvoglUJ-3" value="GLRender" style="html=1;" parent="1" vertex="1">
          <mxGeometry x="200" y="110" width="110" height="50" as="geometry" />
        </mxCell>
        <mxCell id="6IysQoJjXPUectvoglUJ-4" value="ObjectData" style="html=1;" parent="1" vertex="1">
          <mxGeometry x="380" y="240" width="110" height="50" as="geometry" />
        </mxCell>
        <mxCell id="6IysQoJjXPUectvoglUJ-5" value="Mtllib" style="html=1;" parent="1" vertex="1">
          <mxGeometry x="560" y="200" width="110" height="50" as="geometry" />
        </mxCell>
        <mxCell id="6IysQoJjXPUectvoglUJ-6" value="Mtl" style="html=1;" parent="1" vertex="1">
          <mxGeometry x="720" y="200" width="110" height="50" as="geometry" />
        </mxCell>
        <mxCell id="6IysQoJjXPUectvoglUJ-7" value="Mesh" style="html=1;" parent="1" vertex="1">
          <mxGeometry x="560" y="290" width="110" height="50" as="geometry" />
        </mxCell>
        <mxCell id="6IysQoJjXPUectvoglUJ-8" value="Face" style="html=1;" parent="1" vertex="1">
          <mxGeometry x="720" y="290" width="110" height="50" as="geometry" />
        </mxCell>
        <mxCell id="6IysQoJjXPUectvoglUJ-11" value="1" style="endArrow=open;html=1;endSize=12;startArrow=diamondThin;startSize=14;startFill=1;edgeStyle=orthogonalEdgeStyle;align=left;verticalAlign=bottom;entryX=0;entryY=0.75;entryDx=0;entryDy=0;" parent="1" target="6IysQoJjXPUectvoglUJ-5" edge="1">
          <mxGeometry x="-1" y="3" relative="1" as="geometry">
            <mxPoint x="490" y="260" as="sourcePoint" />
            <mxPoint x="670" y="269.5" as="targetPoint" />
          </mxGeometry>
        </mxCell>
        <mxCell id="6IysQoJjXPUectvoglUJ-13" value="1" style="endArrow=open;html=1;endSize=12;startArrow=diamondThin;startSize=14;startFill=1;edgeStyle=orthogonalEdgeStyle;align=left;verticalAlign=bottom;exitX=1;exitY=0.5;exitDx=0;exitDy=0;" parent="1" source="6IysQoJjXPUectvoglUJ-5" target="6IysQoJjXPUectvoglUJ-6" edge="1">
          <mxGeometry x="-1" y="3" relative="1" as="geometry">
            <mxPoint x="680" y="230" as="sourcePoint" />
            <mxPoint x="830" y="224" as="targetPoint" />
          </mxGeometry>
        </mxCell>
        <mxCell id="6IysQoJjXPUectvoglUJ-16" value="1" style="endArrow=open;html=1;endSize=12;startArrow=diamondThin;startSize=14;startFill=1;edgeStyle=orthogonalEdgeStyle;align=left;verticalAlign=bottom;entryX=0;entryY=0.5;entryDx=0;entryDy=0;exitX=1;exitY=0.5;exitDx=0;exitDy=0;" parent="1" source="6IysQoJjXPUectvoglUJ-7" target="6IysQoJjXPUectvoglUJ-8" edge="1">
          <mxGeometry x="-1" y="3" relative="1" as="geometry">
            <mxPoint x="680" y="315" as="sourcePoint" />
            <mxPoint x="240" y="360" as="targetPoint" />
          </mxGeometry>
        </mxCell>
        <mxCell id="6IysQoJjXPUectvoglUJ-17" value="Shader" style="html=1;" parent="1" vertex="1">
          <mxGeometry x="200" y="240" width="110" height="50" as="geometry" />
        </mxCell>
        <mxCell id="BzXfN8QUIZ4uD0MX5tTU-8" value="1" style="endArrow=open;html=1;endSize=12;startArrow=diamondThin;startSize=14;startFill=1;edgeStyle=orthogonalEdgeStyle;align=left;verticalAlign=bottom;" parent="1" source="6IysQoJjXPUectvoglUJ-1" target="6IysQoJjXPUectvoglUJ-3" edge="1">
          <mxGeometry x="-1" y="3" relative="1" as="geometry">
            <mxPoint x="40" y="460" as="sourcePoint" />
            <mxPoint x="200" y="460" as="targetPoint" />
          </mxGeometry>
        </mxCell>
        <mxCell id="Fs9h_nL5IT-47Sxv_z2a-1" value="1" style="endArrow=open;html=1;endSize=12;startArrow=diamondThin;startSize=14;startFill=1;edgeStyle=orthogonalEdgeStyle;align=left;verticalAlign=bottom;exitX=1;exitY=0.5;exitDx=0;exitDy=0;entryX=0;entryY=0.5;entryDx=0;entryDy=0;" parent="1" source="6IysQoJjXPUectvoglUJ-17" target="6IysQoJjXPUectvoglUJ-4" edge="1">
          <mxGeometry x="-1" y="3" relative="1" as="geometry">
            <mxPoint x="40" y="440" as="sourcePoint" />
            <mxPoint x="440" y="320" as="targetPoint" />
            <Array as="points">
              <mxPoint x="350" y="265" />
              <mxPoint x="350" y="265" />
            </Array>
          </mxGeometry>
        </mxCell>
        <mxCell id="Fs9h_nL5IT-47Sxv_z2a-2" value="1" style="endArrow=open;html=1;endSize=12;startArrow=diamondThin;startSize=14;startFill=1;edgeStyle=orthogonalEdgeStyle;align=left;verticalAlign=bottom;exitX=0.5;exitY=1;exitDx=0;exitDy=0;entryX=0.5;entryY=0;entryDx=0;entryDy=0;" parent="1" source="6IysQoJjXPUectvoglUJ-3" target="6IysQoJjXPUectvoglUJ-17" edge="1">
          <mxGeometry x="-1" y="3" relative="1" as="geometry">
            <mxPoint x="220" y="250" as="sourcePoint" />
            <mxPoint x="255" y="360" as="targetPoint" />
          </mxGeometry>
        </mxCell>
        <mxCell id="Fs9h_nL5IT-47Sxv_z2a-5" value="1" style="endArrow=open;html=1;endSize=12;startArrow=diamondThin;startSize=14;startFill=1;edgeStyle=orthogonalEdgeStyle;align=left;verticalAlign=bottom;exitX=1;exitY=0.75;exitDx=0;exitDy=0;entryX=0;entryY=0.5;entryDx=0;entryDy=0;" parent="1" source="6IysQoJjXPUectvoglUJ-4" target="6IysQoJjXPUectvoglUJ-7" edge="1">
          <mxGeometry x="-1" y="3" relative="1" as="geometry">
            <mxPoint x="40" y="440" as="sourcePoint" />
            <mxPoint x="200" y="440" as="targetPoint" />
          </mxGeometry>
        </mxCell>
      </root>
    </mxGraphModel>
  </diagram>
</mxfile>
